<svg id="Layer_1" data-name="Layer 1" xmlns="http://www.w3.org/2000/svg" xmlns:xlink="http://www.w3.org/1999/xlink" width="100" height="100" viewBox="0 0 100 100"><defs><linearGradient id="linear-gradient" x1="-75.73" y1="178.23" x2="-75.73" y2="177.23" gradientTransform="matrix(100, 0, 0, -100, 7623, 17823.18)" gradientUnits="userSpaceOnUse"><stop offset="0" stop-color="#ca96f5"/><stop offset="1" stop-color="#9e4de1"/></linearGradient></defs><title>ic_contact_48px</title><path d="M100,31.28c0-1.2,0-2.39,0-3.58,0-1,0-2,0-3a43.94,43.94,0,0,0-.58-6.57,21.9,21.9,0,0,0-2.06-6.24,21,21,0,0,0-9.18-9.18A21.9,21.9,0,0,0,81.89.63,43.82,43.82,0,0,0,75.32.05c-1,0-2,0-3,0H27.7c-1,0-2,0-3,0a43.82,43.82,0,0,0-6.57.58,21.9,21.9,0,0,0-6.24,2.06,21,21,0,0,0-9.18,9.18A21.9,21.9,0,0,0,.63,18.11a43.82,43.82,0,0,0-.58,6.57c0,1,0,2,0,3,0,1.19,0,2.39,0,3.58V68.72c0,1.19,0,2.39,0,3.58,0,1,0,2,0,3a43.94,43.94,0,0,0,.58,6.57,21.8,21.8,0,0,0,2.06,6.24,20.94,20.94,0,0,0,9.18,9.18,21.9,21.9,0,0,0,6.24,2.06,43.82,43.82,0,0,0,6.57.58c1,0,2,0,3,0H72.3c1,0,2,0,3,0a43.82,43.82,0,0,0,6.57-.58,21.9,21.9,0,0,0,6.24-2.06,20.94,20.94,0,0,0,9.18-9.18,21.8,21.8,0,0,0,2.06-6.24,43.82,43.82,0,0,0,.58-6.57c0-1,0-2,0-3,0-1.19,0-2.39,0-3.58Z" style="fill:url(#linear-gradient)"/><path d="M50.33,78.67A36.49,36.49,0,0,1,23.75,24.52a7,7,0,0,1,9.48-2.61,6.59,6.59,0,0,1,1.31,1,5.41,5.41,0,0,1,.9,6.78,24.16,24.16,0,0,0-2.78,18.08,23.69,23.69,0,0,0,17.9,17.7,24.16,24.16,0,0,0,18.6-3.33,6.65,6.65,0,0,1,8.18.77,6,6,0,0,1,.33,8.52,6.15,6.15,0,0,1-.85.76A36.32,36.32,0,0,1,55.5,79,40.83,40.83,0,0,1,50.33,78.67ZM77.05,49.31a1.83,1.83,0,0,1-1.82-1.85v0h0A22.67,22.67,0,0,0,52.58,24.78h0A1.85,1.85,0,0,1,50.69,23v-.14A1.81,1.81,0,0,1,52.47,21h.1A26.42,26.42,0,0,1,79,47.42h0v.1a1.81,1.81,0,0,1-1.82,1.78Zm-7.64,0a1.63,1.63,0,0,1-1.62-1.63v-.25A15.23,15.23,0,0,0,52.58,32.21h-.23a1.63,1.63,0,0,1-1.66-1.59v-.56a1.62,1.62,0,0,1,1.58-1.62h.31a19,19,0,0,1,19,19v.3a1.62,1.62,0,0,1-1.63,1.58Zm-7.82,0A1.61,1.61,0,0,1,60,47.72a.06.06,0,0,1,0,0,7,7,0,0,0-.7-3.31,7.71,7.71,0,0,0-3.61-3.61,7,7,0,0,0-3.19-.71,1.73,1.73,0,0,1-1.75-1.72v-.41a1.64,1.64,0,0,1,1.58-1.64h.31A11.14,11.14,0,0,1,63.72,47.42h0v.07a1.85,1.85,0,0,1-1.87,1.81Z" style="fill:#fff"/></svg>