<svg xmlns="http://www.w3.org/2000/svg" xmlns:xlink="http://www.w3.org/1999/xlink" width="80" height="80" viewBox="0 0 80 80">
  <defs>
    <linearGradient id="linear-gradient" x1="0.5" x2="0.5" y2="1" gradientUnits="objectBoundingBox">
      <stop offset="0" stop-color="#50b83c"/>
      <stop offset="1" stop-color="#14aa8a"/>
    </linearGradient>
    <clipPath id="clip-_80x80">
      <rect width="80" height="80"/>
    </clipPath>
  </defs>
  <g id="_80x80" data-name="80x80" clip-path="url(#clip-_80x80)">
    <g id="Group_30793" data-name="Group 30793" transform="translate(-2012 -779)">
      <path id="App_Icon_Mask" d="M79.82,24.97V19.7a29.4,29.4,0,0,0-.479-5.269A18.652,18.652,0,0,0,77.665,9.4a16.351,16.351,0,0,0-7.345-7.345A18.652,18.652,0,0,0,65.289.379,29.4,29.4,0,0,0,60.02-.1H22.1c-.8,0-1.6,0-2.4.08a29.4,29.4,0,0,0-5.269.479,21.729,21.729,0,0,0-5.03,1.6A16.351,16.351,0,0,0,2.056,9.4a18.126,18.126,0,0,0-1.677,4.95A29.4,29.4,0,0,0-.1,19.621v38c0,.8,0,1.6.08,2.4a29.4,29.4,0,0,0,.479,5.269,21.73,21.73,0,0,0,1.6,5.03A16.351,16.351,0,0,0,9.4,77.665a18.652,18.652,0,0,0,5.03,1.677,29.4,29.4,0,0,0,5.269.479H60.1a29.4,29.4,0,0,0,5.269-.479,18.652,18.652,0,0,0,5.03-1.677,17.168,17.168,0,0,0,7.345-7.345,18.652,18.652,0,0,0,1.677-5.03A29.4,29.4,0,0,0,79.9,60.02v-2.4L79.82,24.97Z" transform="translate(2012.1 779.1)" fill="url(#linear-gradient)"/>
      <path id="Path_33858" data-name="Path 33858" d="M43.571,13.895,24.15,25.323a1.972,1.972,0,0,0-.719,2.717,1.568,1.568,0,0,0,.719.719L43.571,40.108a2.815,2.815,0,0,0,2.957,0L65.948,28.76a1.972,1.972,0,0,0,.719-2.717,1.568,1.568,0,0,0-.719-.719L46.528,13.895A2.814,2.814,0,0,0,43.571,13.895Z" transform="translate(2007.43 776.374)" fill="#fff"/>
      <path id="Path_33859" data-name="Path 33859" d="M20.457,39.14,39.318,50.488a3.026,3.026,0,0,1,1.439,2.478V74.145a1.961,1.961,0,0,1-1.918,2,1.835,1.835,0,0,1-1.119-.32L18.779,63.356a2.923,2.923,0,0,1-1.279-2.4V40.9a1.913,1.913,0,0,1,1.918-2A2.212,2.212,0,0,1,20.457,39.14Z" transform="translate(2008.566 771.269)" fill="#fff"/>
      <path id="Path_33857" data-name="Path 33857" d="M74.72,39.14,55.939,50.488A3.026,3.026,0,0,0,54.5,52.966V74.145a1.961,1.961,0,0,0,1.918,2,1.835,1.835,0,0,0,1.119-.32L76.4,63.356a2.923,2.923,0,0,0,1.279-2.4V40.9a1.913,1.913,0,0,0-1.918-2A2.212,2.212,0,0,0,74.72,39.14Z" transform="translate(2001.136 771.269)" fill="#fff"/>
      <rect id="Rectangle_16467" data-name="Rectangle 16467" width="79.92" height="79.92" transform="translate(2012.08 779.08)" fill="none"/>
    </g>
  </g>
</svg>