<svg xmlns="http://www.w3.org/2000/svg" xmlns:xlink="http://www.w3.org/1999/xlink" viewBox="0 0 100 100"><defs><linearGradient id="a" x1="-482.51" y1="29.83" x2="-481.74" y2="30.69" gradientTransform="translate(48260.35 -2978.34) scale(100)" gradientUnits="userSpaceOnUse"><stop offset="0" stop-color="#0070f1"/><stop offset="1" stop-color="#20a6ff"/></linearGradient><linearGradient id="b" x1="-479.24" y1="33.35" x2="-479.24" y2="34.35" gradientTransform="translate(29888.01 -2240.88) scale(62.26 67.77)" gradientUnits="userSpaceOnUse"><stop offset="0" stop-color="#fcfcfc"/><stop offset="1" stop-color="#d9e6ee"/></linearGradient></defs><path d="M22,0H78a21.94,21.94,0,0,1,22,22V78a21.94,21.94,0,0,1-22,22H22A21.94,21.94,0,0,1,0,78V22A22,22,0,0,1,22,0Z" transform="translate(0 0)" fill="url(#a)"/><path d="M30.7,86.8h0a.94.94,0,0,1-1-1v-12a31.08,31.08,0,1,1,12.4,6.5L31.2,86.7C31,86.7,30.9,86.8,30.7,86.8ZM62.5,45.3A4.7,4.7,0,1,0,67.2,50h0A4.69,4.69,0,0,0,62.5,45.3ZM50,45.3A4.7,4.7,0,1,0,54.7,50h0A4.69,4.69,0,0,0,50,45.3Zm-12.5,0A4.7,4.7,0,1,0,42.2,50h0A4.69,4.69,0,0,0,37.5,45.3Z" transform="translate(0 0)" fill="url(#b)"/></svg>