<svg id="Layer_1" data-name="Layer 1" xmlns="http://www.w3.org/2000/svg" xmlns:xlink="http://www.w3.org/1999/xlink" width="100" height="100" viewBox="0 0 100 100"><defs><linearGradient id="linear-gradient" x1="-76.08" y1="178.15" x2="-75.33" y2="177.25" gradientTransform="matrix(100, 0, 0, -100, 7623, 17823.18)" gradientUnits="userSpaceOnUse"><stop offset="0" stop-color="#5f7fa5"/><stop offset="1" stop-color="#425974"/></linearGradient></defs><title>ic_setting_48px</title><path d="M100,31.28c0-1.2,0-2.39,0-3.58,0-1,0-2,0-3a43.94,43.94,0,0,0-.58-6.57,21.9,21.9,0,0,0-2.06-6.24,21,21,0,0,0-9.18-9.18A21.9,21.9,0,0,0,81.89.63,43.82,43.82,0,0,0,75.32.05c-1,0-2,0-3,0H27.7c-1,0-2,0-3,0a43.82,43.82,0,0,0-6.57.58,21.9,21.9,0,0,0-6.24,2.06,21,21,0,0,0-9.18,9.18A21.9,21.9,0,0,0,.63,18.11a43.82,43.82,0,0,0-.58,6.57c0,1,0,2,0,3,0,1.19,0,2.39,0,3.58V68.72c0,1.19,0,2.39,0,3.58,0,1,0,2,0,3a43.94,43.94,0,0,0,.58,6.57,21.8,21.8,0,0,0,2.06,6.24,20.94,20.94,0,0,0,9.18,9.18,21.9,21.9,0,0,0,6.24,2.06,43.82,43.82,0,0,0,6.57.58c1,0,2,0,3,0H72.3c1,0,2,0,3,0a43.82,43.82,0,0,0,6.57-.58,21.9,21.9,0,0,0,6.24-2.06,20.94,20.94,0,0,0,9.18-9.18,21.8,21.8,0,0,0,2.06-6.24,43.82,43.82,0,0,0,.58-6.57c0-1,0-2,0-3,0-1.19,0-2.39,0-3.58Z" style="fill:url(#linear-gradient)"/><path d="M81.79,43H77.54a3.15,3.15,0,0,1-2.91-2c-.21-.54-.44-1.07-.68-1.59a3.12,3.12,0,0,1,.64-3.61l3.49-3.37A3.14,3.14,0,0,0,78.16,28a.6.6,0,0,0-.08-.08l-5.66-5.45a3.13,3.13,0,0,0-4.35,0L64.29,26.1a3.12,3.12,0,0,1-3.41.62q-.95-.42-1.92-.78a3.11,3.11,0,0,1-2-2.93V18.13A3.13,3.13,0,0,0,53.79,15H47.13A3.13,3.13,0,0,0,44,18.13h0v4.24a3.14,3.14,0,0,1-2,2.92c-.53.21-1.06.44-1.57.68a3.15,3.15,0,0,1-3.63-.64l-3.36-3.49A3.13,3.13,0,0,0,29,21.75h0l-.08.09L23.46,27.5a3.13,3.13,0,0,0,0,4.35l3.64,3.78a3.1,3.1,0,0,1,.61,3.4c-.28.64-.53,1.28-.77,1.93A3.11,3.11,0,0,1,24,43H19.13A3.13,3.13,0,0,0,16,46.13v6.65a3.13,3.13,0,0,0,3.13,3.13h4.24a3.14,3.14,0,0,1,2.92,2c.21.53.44,1.06.68,1.58a3.14,3.14,0,0,1-.64,3.62l-3.49,3.36a3.14,3.14,0,0,0-.09,4.43l.09.09,5.66,5.45a3.13,3.13,0,0,0,4.35,0l3.78-3.64A3.1,3.1,0,0,1,40,72.2c.64.28,1.28.54,1.93.78a3.11,3.11,0,0,1,2,2.92v4.88a3.13,3.13,0,0,0,3.13,3.13h6.66a3.13,3.13,0,0,0,3.13-3.13h0V76.54a3.16,3.16,0,0,1,2-2.92c.53-.21,1.06-.43,1.58-.68a3.16,3.16,0,0,1,3.62.65l3.36,3.49a3.14,3.14,0,0,0,4.43.08l.09-.08,5.45-5.66a3.13,3.13,0,0,0,0-4.35l-3.64-3.78a3.1,3.1,0,0,1-.62-3.41q.42-.95.78-1.92a3.1,3.1,0,0,1,2.92-2h4.88a3.14,3.14,0,0,0,3.13-3.13V46.13A3.13,3.13,0,0,0,81.79,43ZM50.46,63.06a13.6,13.6,0,1,1,13.6-13.6h0a13.6,13.6,0,0,1-13.6,13.6Z" style="fill:#fff"/></svg>